<svg width="48" height="48" viewBox="0 0 48 48" fill="none" xmlns="http://www.w3.org/2000/svg">
<rect width="48" height="48" rx="24" fill="white"/>
<path fill-rule="evenodd" clip-rule="evenodd" d="M31.777 16.43C32.0241 16.326 32.2946 16.2901 32.5603 16.3261C32.826 16.3621 33.0772 16.4686 33.2877 16.6347C33.4982 16.8007 33.6604 17.0201 33.7574 17.27C33.8543 17.52 33.8825 17.7914 33.839 18.056L31.571 31.813C31.351 33.14 29.895 33.901 28.678 33.24C27.66 32.687 26.148 31.835 24.788 30.946C24.108 30.501 22.025 29.076 22.281 28.062C22.501 27.195 26.001 23.937 28.001 22C28.786 21.239 28.428 20.8 27.501 21.5C25.199 23.238 21.503 25.881 20.281 26.625C19.203 27.281 18.641 27.393 17.969 27.281C16.743 27.077 15.606 26.761 14.678 26.376C13.424 25.856 13.485 24.132 14.677 23.63L31.777 16.43Z" fill="#1F2E3E"/>
</svg>
