<svg width="48" height="48" viewBox="0 0 48 48" fill="none" xmlns="http://www.w3.org/2000/svg">
<rect width="48" height="48" rx="24" fill="white"/>
<path d="M24.001 14C29.524 14 34.001 18.477 34.001 24C34.001 29.523 29.524 34 24.001 34C22.2337 34.003 20.4976 33.5353 18.971 32.645L14.005 34L15.357 29.032C14.466 27.5049 13.9979 25.768 14.001 24C14.001 18.477 18.478 14 24.001 14ZM20.593 19.3L20.393 19.308C20.2637 19.3169 20.1373 19.3509 20.021 19.408C19.9126 19.4695 19.8136 19.5463 19.727 19.636C19.607 19.749 19.539 19.847 19.466 19.942C19.0961 20.4229 18.897 21.0133 18.9 21.62C18.902 22.11 19.03 22.587 19.23 23.033C19.639 23.935 20.312 24.89 21.2 25.775C21.414 25.988 21.624 26.202 21.85 26.401C22.9534 27.3724 24.2683 28.073 25.69 28.447L26.258 28.534C26.443 28.544 26.628 28.53 26.814 28.521C27.1052 28.5056 27.3895 28.4268 27.647 28.29C27.7778 28.2223 27.9056 28.1489 28.03 28.07C28.03 28.07 28.0723 28.0413 28.155 27.98C28.29 27.88 28.373 27.809 28.485 27.692C28.569 27.6053 28.639 27.5047 28.695 27.39C28.773 27.227 28.851 26.916 28.883 26.657C28.907 26.459 28.9 26.351 28.897 26.284C28.893 26.177 28.804 26.066 28.707 26.019L28.125 25.758C28.125 25.758 27.255 25.379 26.723 25.137C26.6673 25.1128 26.6077 25.0989 26.547 25.096C26.4786 25.0888 26.4094 25.0965 26.3442 25.1184C26.279 25.1403 26.2192 25.176 26.169 25.223C26.164 25.221 26.097 25.278 25.374 26.154C25.3325 26.2098 25.2753 26.2519 25.2098 26.2751C25.1443 26.2982 25.0733 26.3013 25.006 26.284C24.9408 26.2666 24.877 26.2446 24.815 26.218C24.691 26.166 24.648 26.146 24.563 26.11C23.9889 25.8599 23.4574 25.5215 22.988 25.107C22.862 24.997 22.745 24.877 22.625 24.761C22.2316 24.3842 21.8887 23.958 21.605 23.493L21.546 23.398C21.5043 23.3338 21.47 23.265 21.444 23.193C21.406 23.046 21.505 22.928 21.505 22.928C21.505 22.928 21.748 22.662 21.861 22.518C21.971 22.378 22.064 22.242 22.124 22.145C22.242 21.955 22.279 21.76 22.217 21.609C21.937 20.925 21.6477 20.2447 21.349 19.568C21.29 19.434 21.115 19.338 20.956 19.319C20.902 19.3123 20.848 19.307 20.794 19.303C20.6597 19.2953 20.5251 19.2966 20.391 19.307L20.593 19.3Z" fill="#1F2E3E"/>
</svg>
