<svg width="1920" height="416" viewBox="0 0 1920 416" fill="none" xmlns="http://www.w3.org/2000/svg">
<path d="M1166.34 35.5791H1048.53V415.306H1166.34V35.5791Z" fill="#1F2E3E"/>
<path d="M1175.14 37.8301H1039.73V41.6778H1175.14V37.8301Z" fill="#1F2E3E"/>
<path d="M1171.48 91.1689H1043.39V95.0042H1171.48V91.1689Z" fill="#1F2E3E"/>
<path d="M1171.48 142.823H1043.39V146.659H1171.48V142.823Z" fill="#1F2E3E"/>
<path d="M1171.48 194.482H1043.39V198.318H1171.48V194.482Z" fill="#1F2E3E"/>
<path d="M1171.48 246.137H1043.39V249.972H1171.48V246.137Z" fill="#1F2E3E"/>
<path d="M1171.48 297.796H1043.39V301.631H1171.48V297.796Z" fill="#1F2E3E"/>
<path d="M1171.48 349.451H1043.39V353.286H1171.48V349.451Z" fill="#1F2E3E"/>
<path d="M1179.62 27.3408H1035.25V37.8317H1179.62V27.3408Z" fill="#1F2E3E"/>
<path opacity="0.29" d="M1071.38 54.1494H1059.14V84.4843H1071.38V54.1494Z" fill="#1F2E3E"/>
<path d="M1098.76 54.1494H1086.52V84.4843H1098.76V54.1494Z" fill="#1F2E3E"/>
<path d="M1126.13 54.1494H1113.89V84.4843H1126.13V54.1494Z" fill="#1F2E3E"/>
<path d="M1153.51 54.1494H1141.27V84.4843H1153.51V54.1494Z" fill="#1F2E3E"/>
<path d="M1071.38 103.748H1059.14V134.083H1071.38V103.748Z" fill="#1F2E3E"/>
<path opacity="0.29" d="M1098.76 103.748H1086.52V134.083H1098.76V103.748Z" fill="#1F2E3E"/>
<path d="M1126.13 103.748H1113.89V134.083H1126.13V103.748Z" fill="#1F2E3E"/>
<path d="M1153.51 103.748H1141.27V134.083H1153.51V103.748Z" fill="#1F2E3E"/>
<path d="M1071.38 155.402H1059.14V185.737H1071.38V155.402Z" fill="#1F2E3E"/>
<path d="M1098.76 155.402H1086.52V185.737H1098.76V155.402Z" fill="#1F2E3E"/>
<path d="M1126.13 155.402H1113.89V185.737H1126.13V155.402Z" fill="#1F2E3E"/>
<path opacity="0.29" d="M1153.51 155.402H1141.27V185.737H1153.51V155.402Z" fill="#1F2E3E"/>
<path d="M1071.38 207.062H1059.14V237.396H1071.38V207.062Z" fill="#1F2E3E"/>
<path opacity="0.29" d="M1098.76 207.062H1086.52V237.396H1098.76V207.062Z" fill="#1F2E3E"/>
<path opacity="0.29" d="M1126.13 207.062H1113.89V237.396H1126.13V207.062Z" fill="#1F2E3E"/>
<path d="M1153.51 207.062H1141.27V237.396H1153.51V207.062Z" fill="#1F2E3E"/>
<path opacity="0.29" d="M1071.38 258.716H1059.14V289.051H1071.38V258.716Z" fill="#1F2E3E"/>
<path d="M1098.76 258.716H1086.52V289.051H1098.76V258.716Z" fill="#1F2E3E"/>
<path d="M1126.13 258.716H1113.89V289.051H1126.13V258.716Z" fill="#1F2E3E"/>
<path d="M1153.51 258.716H1141.27V289.051H1153.51V258.716Z" fill="#1F2E3E"/>
<path d="M1071.38 310.375H1059.14V340.71H1071.38V310.375Z" fill="#1F2E3E"/>
<path d="M1098.76 310.375H1086.52V340.71H1098.76V310.375Z" fill="#1F2E3E"/>
<path opacity="0.29" d="M1126.13 310.375H1113.89V340.71H1126.13V310.375Z" fill="#1F2E3E"/>
<path d="M1153.51 310.375H1141.27V340.71H1153.51V310.375Z" fill="#1F2E3E"/>
<path d="M1071.38 362.03H1059.14V392.365H1071.38V362.03Z" fill="#1F2E3E"/>
<path opacity="0.29" d="M1098.76 362.03H1086.52V392.365H1098.76V362.03Z" fill="#1F2E3E"/>
<path d="M1126.13 362.03H1113.89V392.365H1126.13V362.03Z" fill="#1F2E3E"/>
<path opacity="0.29" d="M1153.51 362.03H1141.27V392.365H1153.51V362.03Z" fill="#1F2E3E"/>
<path d="M1096.04 12.8623H1055.97V32.5838H1096.04V12.8623Z" fill="#1F2E3E"/>
<path d="M1098.75 12.3008H1053.25V15.6711H1098.75V12.3008Z" fill="#1F2E3E"/>
<path d="M879.684 415.308H722.754V54.5154L879.684 16.1299V415.308Z" fill="#1F2E3E"/>
<path d="M729.647 48.1631H715.858V415.307H729.647V48.1631Z" fill="#1F2E3E"/>
<path d="M768.878 37.8154H755.09V415.305H768.878V37.8154Z" fill="#1F2E3E"/>
<path d="M808.115 27.0723H794.326V415.307H808.115V27.0723Z" fill="#1F2E3E"/>
<path d="M847.341 18.3174H833.553V415.308H847.341V18.3174Z" fill="#1F2E3E"/>
<path d="M886.578 9.00488H872.789V415.306H886.578V9.00488Z" fill="#1F2E3E"/>
<path opacity="0.29" d="M751.519 78.9717H733.218V106.854H751.519V78.9717Z" fill="#1F2E3E"/>
<path opacity="0.29" d="M790.751 78.9717H772.449V106.854H790.751V78.9717Z" fill="#1F2E3E"/>
<path d="M829.983 78.9717H811.682V106.854H829.983V78.9717Z" fill="#1F2E3E"/>
<path opacity="0.29" d="M869.219 78.9717H850.918V106.854H869.219V78.9717Z" fill="#1F2E3E"/>
<path d="M751.519 127.524H733.218V155.407H751.519V127.524Z" fill="#1F2E3E"/>
<path d="M790.751 127.524H772.449V155.407H790.751V127.524Z" fill="#1F2E3E"/>
<path opacity="0.29" d="M829.983 127.524H811.682V155.407H829.983V127.524Z" fill="#1F2E3E"/>
<path opacity="0.29" d="M869.219 127.524H850.918V155.407H869.219V127.524Z" fill="#1F2E3E"/>
<path opacity="0.29" d="M751.519 176.073H733.218V203.955H751.519V176.073Z" fill="#1F2E3E"/>
<path opacity="0.29" d="M790.751 176.073H772.449V203.955H790.751V176.073Z" fill="#1F2E3E"/>
<path opacity="0.29" d="M829.983 176.073H811.682V203.955H829.983V176.073Z" fill="#1F2E3E"/>
<path d="M869.219 176.073H850.918V203.955H869.219V176.073Z" fill="#1F2E3E"/>
<path opacity="0.29" d="M751.519 224.627H733.218V252.509H751.519V224.627Z" fill="#1F2E3E"/>
<path d="M790.751 224.627H772.449V252.509H790.751V224.627Z" fill="#1F2E3E"/>
<path opacity="0.29" d="M829.983 224.627H811.682V252.509H829.983V224.627Z" fill="#1F2E3E"/>
<path opacity="0.29" d="M869.219 224.627H850.918V252.509H869.219V224.627Z" fill="#1F2E3E"/>
<path opacity="0.29" d="M751.519 273.176H733.218V301.058H751.519V273.176Z" fill="#1F2E3E"/>
<path opacity="0.29" d="M790.751 273.176H772.449V301.058H790.751V273.176Z" fill="#1F2E3E"/>
<path d="M829.983 273.176H811.682V301.058H829.983V273.176Z" fill="#1F2E3E"/>
<path opacity="0.29" d="M869.219 273.176H850.918V301.058H869.219V273.176Z" fill="#1F2E3E"/>
<path d="M751.519 321.725H733.218V349.607H751.519V321.725Z" fill="#1F2E3E"/>
<path d="M790.751 321.725H772.449V349.607H790.751V321.725Z" fill="#1F2E3E"/>
<path opacity="0.29" d="M829.983 321.725H811.682V349.607H829.983V321.725Z" fill="#1F2E3E"/>
<path opacity="0.29" d="M869.219 321.725H850.918V349.607H869.219V321.725Z" fill="#1F2E3E"/>
<path opacity="0.29" d="M751.519 370.273H733.218V398.156H751.519V370.273Z" fill="#1F2E3E"/>
<path d="M790.751 370.273H772.449V398.156H790.751V370.273Z" fill="#1F2E3E"/>
<path opacity="0.29" d="M829.983 370.273H811.682V398.156H829.983V370.273Z" fill="#1F2E3E"/>
<path d="M869.219 370.273H850.918V398.156H869.219V370.273Z" fill="#1F2E3E"/>
<path d="M275.093 71.7969V75.5421H271.362V86.2179H337.025V415.306H229.272V103.387V86.2179V75.5421H225.361V71.7969H275.093Z" fill="#1F2E3E"/>
<path d="M550.952 221.276H458.655V415.304H550.952V221.276Z" fill="#1F2E3E"/>
<path d="M131.409 176.796H56.3828V415.302H131.409V176.796Z" fill="#1F2E3E"/>
<path d="M198.308 226.492H116.549V415.304H198.308V226.492Z" fill="#1F2E3E"/>
<path d="M116.55 167.225H83.377V195.767H116.55V167.225Z" fill="#1F2E3E"/>
<path d="M209.313 223.382H122.159V230.362H209.313V223.382Z" fill="#1F2E3E"/>
<path d="M281.193 307.475H189.528V415.303H281.193V307.475Z" fill="#1F2E3E"/>
<path d="M83.375 343.137H-32.1689V415.305H83.375V343.137Z" fill="#1F2E3E"/>
<path d="M486.75 384.214H306.769V415.304H486.75V384.214Z" fill="#1F2E3E"/>
<path d="M805.852 384.214H625.87V415.304H805.852V384.214Z" fill="#1F2E3E"/>
<path d="M479.742 292.947H411.334L382.404 399.763H479.742V292.947Z" fill="#1F2E3E"/>
<path d="M513.265 137.525H511.359V256.02H513.265V137.525Z" fill="#1F2E3E"/>
<path d="M523.427 177.626H520.887V247.544H523.427V177.626Z" fill="#1F2E3E"/>
<path d="M541.883 190.015H507.272V224.625H541.883V190.015Z" fill="#1F2E3E"/>
<path d="M547.265 187.324H501.427V190.425H547.265V187.324Z" fill="#1F2E3E"/>
<path d="M646 315.225H534.169V415.302H646V315.225Z" fill="#1F2E3E"/>
<path d="M696.458 205.055H624.61V398.157H696.458V205.055Z" fill="#1F2E3E"/>
<path d="M1020 241.356H905.213V415.302H1020V241.356Z" fill="#1F2E3E"/>
<path d="M1000.09 351.209H869.22V415.304H1000.09V351.209Z" fill="#1F2E3E"/>
<path d="M1098.76 392.364H1013.65V415.306H1098.76V392.364Z" fill="#1F2E3E"/>
<path d="M1283.11 351.209H1144.73V415.304H1283.11V351.209Z" fill="#1F2E3E"/>
<path d="M1199.86 415.306H1372.04V183.4L1199.86 183.4V415.306Z" fill="#1F2E3E"/>
<path d="M1195.41 183.403L1382.09 183.403V174.508L1195.41 174.508V183.403Z" fill="#1F2E3E"/>
<path d="M1288.75 197.379H1364.41V150.363H1288.75V197.379Z" fill="#1F2E3E"/>
<path d="M1251.32 178.954H1264.03V150.362H1251.32V178.954Z" fill="#1F2E3E"/>
<path d="M1224.63 178.954H1238.61V150.362H1224.63V178.954Z" fill="#1F2E3E"/>
<path d="M1490.4 415.306H1626.69V76.6194H1490.4V415.306Z" fill="#1F2E3E"/>
<path d="M1486.53 80.3672L1630.57 80.3672V70.7939L1486.53 70.7939V80.3672Z" fill="#1F2E3E"/>
<path d="M1494.98 104.041L1622.11 104.041V58.54L1494.98 58.54V104.041Z" fill="#1F2E3E"/>
<path d="M1562.04 89.6406H1612.38V39.9268L1562.04 39.9268V89.6406Z" fill="#1F2E3E"/>
<path d="M1583.25 53.9377H1612.39V27.7656H1591.49L1583.25 53.9377Z" fill="#1F2E3E"/>
<path d="M1597.82 64.3359H1600.64V6.04391H1597.82V64.3359Z" fill="#1F2E3E"/>
<path d="M1596.69 3.0227C1596.69 4.69032 1597.83 6.04295 1599.23 6.04295C1600.63 6.04295 1601.77 4.69032 1601.77 3.0227C1601.77 1.35257 1600.63 0 1599.23 0C1597.82 0 1596.69 1.35257 1596.69 3.0227Z" fill="#1F2E3E"/>
<path d="M1669.03 275.485H1608.04V415.304H1669.03V275.485Z" fill="#1F2E3E"/>
<path d="M1503.86 207.32H1434.3V415.306H1503.86V207.32Z" fill="#1F2E3E"/>
<path d="M1469.11 415.303H1371.12V304.062L1453.82 340.704L1469.11 415.303Z" fill="#1F2E3E"/>
<path d="M1798.64 354.891H1649V415.305H1798.64V354.891Z" fill="#1F2E3E"/>
<path d="M1830.29 174.135H1743.37V415.306H1830.29V174.135Z" fill="#1F2E3E"/>
<path d="M1953.97 370.272H1809.96V415.301H1953.97V370.272Z" fill="#1F2E3E"/>
<path d="M1834.27 169.72H1738.92V177.625H1834.27V169.72Z" fill="#1F2E3E"/>
<path d="M1818.64 135.689H1816.74V184.291H1818.64V135.689Z" fill="#1F2E3E"/>
<path d="M1805.94 141.842H1804.03V180.83H1805.94V141.842Z" fill="#1F2E3E"/>
<path d="M1862.48 264.986H1823.73V375.482H1879L1862.48 264.986Z" fill="#1F2E3E"/>
</svg>
