<svg width="38" height="52" viewBox="0 0 38 52" fill="none" xmlns="http://www.w3.org/2000/svg">
<g clip-path="url(#clip0_208_11308)">
<path d="M20.1659 24.3833C18.4641 24.3833 16.832 23.7073 15.6286 22.5039C14.4253 21.3006 13.7492 19.6685 13.7492 17.9667C13.7492 16.2649 14.4253 14.6328 15.6286 13.4294C16.832 12.226 18.4641 11.55 20.1659 11.55C21.8677 11.55 23.4998 12.226 24.7032 13.4294C25.9065 14.6328 26.5826 16.2649 26.5826 17.9667C26.5826 18.8093 26.4166 19.6437 26.0941 20.4222C25.7716 21.2007 25.299 21.9081 24.7032 22.5039C24.1073 23.0998 23.3999 23.5724 22.6214 23.8949C21.8429 24.2174 21.0085 24.3833 20.1659 24.3833ZM20.1659 0C15.4008 0 10.8309 1.89291 7.46153 5.26231C4.09213 8.63172 2.19922 13.2016 2.19922 17.9667C2.19922 31.4417 20.1659 51.3333 20.1659 51.3333C20.1659 51.3333 38.1326 31.4417 38.1326 17.9667C38.1326 13.2016 36.2396 8.63172 32.8702 5.26231C29.5008 1.89291 24.9309 0 20.1659 0Z" fill="#E2C97E"/>
</g>
<defs>
<clipPath id="clip0_208_11308">
<rect width="38" height="52" fill="white"/>
</clipPath>
</defs>
</svg>
