<svg width="141" height="135" viewBox="0 0 141 135" fill="none" xmlns="http://www.w3.org/2000/svg">
<path d="M7.00562 120.442H14.0112V29.8553C14.0114 27.5988 14.7058 25.3996 15.9958 23.5693C17.2859 21.7389 19.1062 20.3702 21.199 19.6572L77.2439 0.550839C78.8234 0.0126734 80.5053 -0.133895 82.151 0.123204C83.7967 0.380304 85.3591 1.03372 86.7096 2.02961C88.0601 3.02551 89.1599 4.33539 89.9186 5.85134C90.6772 7.3673 91.0729 9.04595 91.073 10.749V120.442H98.0786V55.8703C98.079 55.3404 98.1942 54.8171 98.416 54.3382C98.6378 53.8593 98.9607 53.4367 99.3614 53.1008C99.7621 52.7649 100.231 52.5242 100.733 52.3958C101.236 52.2675 101.76 52.2548 102.268 52.3587L117.652 55.512C120.034 55.9989 122.177 57.3145 123.717 59.2351C125.257 61.1557 126.1 63.5628 126.101 66.047V120.442H133.107C134.965 120.442 136.747 121.197 138.06 122.541C139.374 123.885 140.112 125.708 140.112 127.609C140.112 129.509 139.374 131.332 138.06 132.676C136.747 134.02 134.965 134.775 133.107 134.775H7.00562C5.14761 134.775 3.36571 134.02 2.0519 132.676C0.738089 131.332 0 129.509 0 127.609C0 125.708 0.738089 123.885 2.0519 122.541C3.36571 121.197 5.14761 120.442 7.00562 120.442Z" fill="#E2C97E"/>
</svg>
